<svg xmlns="http://www.w3.org/2000/svg" width="64" height="64" viewBox="0 0 64 64" role="img" aria-label="LLM Studio">
  <rect width="64" height="64" rx="14" fill="#10a37f"/>
  <path d="M14 15h14a6 6 0 0 1 6 6v10a6 6 0 0 1-6 6H23l-7 7v-7h-2a6 6 0 0 1-6-6V21a6 6 0 0 1 6-6Z" fill="none"/>
  <path d="M18 14h20a8 8 0 0 1 8 8v12a8 8 0 0 1-8 8H27l-9 8v-8a8 8 0 0 1-8-8V22a8 8 0 0 1 8-8Z" fill="#ffffff" opacity="0.14"/>
  <text x="32" y="41" font-family="'Segoe UI',Helvetica,Arial,sans-serif" font-size="30" font-weight="700" fill="#ffffff" text-anchor="middle">L</text>
</svg>
